<svg width="512" height="512" viewBox="0 0 512 512" fill="none" xmlns="http://www.w3.org/2000/svg">
  <rect width="512" height="512" rx="108" fill="#101828"/>
  <rect x="92" y="78" width="250" height="356" rx="36" fill="#F8FAFC"/>
  <rect x="128" y="126" width="156" height="18" rx="9" fill="#1F5EFF"/>
  <rect x="128" y="176" width="178" height="14" rx="7" fill="#CBD5E1"/>
  <rect x="128" y="214" width="132" height="14" rx="7" fill="#CBD5E1"/>
  <rect x="128" y="252" width="166" height="14" rx="7" fill="#CBD5E1"/>
  <path d="M128 326H284" stroke="#F59E0B" stroke-width="18" stroke-linecap="round"/>
  <rect x="256" y="214" width="164" height="164" rx="42" fill="#1F5EFF"/>
  <path d="M302 302C302 279.909 319.909 262 342 262H372V292H342C336.477 292 332 296.477 332 302C332 307.523 336.477 312 342 312H374C396.091 312 414 329.909 414 352C414 374.091 396.091 392 374 392H314V362H374C379.523 362 384 357.523 384 352C384 346.477 379.523 342 374 342H342C319.909 342 302 324.091 302 302Z" fill="white"/>
  <path d="M354 236V264" stroke="#34D399" stroke-width="18" stroke-linecap="round"/>
  <path d="M354 390V418" stroke="#34D399" stroke-width="18" stroke-linecap="round"/>
</svg>
