<svg width="512" height="512" viewBox="0 0 512 512" fill="none" xmlns="http://www.w3.org/2000/svg">
  <rect width="512" height="512" rx="96" fill="#2563EB"/>
  <path d="M114 160C114 134.595 134.595 114 160 114H334C369.346 114 398 142.654 398 178V352C398 377.405 377.405 398 352 398H178C142.654 398 114 369.346 114 334V160Z" fill="white"/>
  <path d="M178 178H316C328.15 178 338 187.85 338 200C338 212.15 328.15 222 316 222H178V178Z" fill="#DBEAFE"/>
  <path d="M178 246H334C346.15 246 356 255.85 356 268C356 280.15 346.15 290 334 290H178V246Z" fill="#BFDBFE"/>
  <path d="M178 314H286C298.15 314 308 323.85 308 336C308 348.15 298.15 358 286 358H178V314Z" fill="#93C5FD"/>
  <circle cx="366" cy="148" r="38" fill="#22C55E"/>
  <path d="M350 149.5L361 160.5L383 136" stroke="white" stroke-width="14" stroke-linecap="round" stroke-linejoin="round"/>
</svg>
